<?xml version="1.0" encoding="UTF-8" standalone="no"?>

<svg
   xmlns:dc="http://purl.org/dc/elements/1.1/"
   xmlns:cc="http://creativecommons.org/ns#"
   xmlns:rdf="http://www.w3.org/1999/02/22-rdf-syntax-ns#"
   xmlns:svg="http://www.w3.org/2000/svg"
   xmlns="http://www.w3.org/2000/svg"
   version="1.1"
   id="Layer_1"
   x="0px"
   y="0px"
   viewBox="0 0 96 96"
   style="enable-background:new 0 0 96 96;"
   xml:space="preserve">
   <metadata
     id="metadata11"><rdf:RDF><cc:Work
         rdf:about=""><dc:format>image/svg+xml</dc:format><dc:type
           rdf:resource="http://purl.org/dc/dcmitype/StillImage" /><dc:title></dc:title></cc:Work></rdf:RDF></metadata>
           <defs
     id="defs9" />
  <path
     style="fill:#ffffff;stroke-width:0.40677965"
     d="m 33.894283,77.837288 c -1.428534,-1.845763 -3.909722,-5.220659 -5.513751,-7.499764 -1.60403,-2.279109 -4.323663,-5.940126 -6.043631,-8.135593 -5.698554,-7.273973 -6.224902,-8.044795 -6.226676,-9.118803 -0.0034,-2.075799 2.81181,-4.035355 4.9813,-3.467247 0.50339,0.131819 2.562712,1.72771 4.576272,3.546423 4.238418,3.828283 6.617166,5.658035 7.355654,5.658035 0.82497,0 1.045415,-1.364294 0.567453,-3.511881 C 33.348583,54.219654 31.1088,48.20339 28.613609,41.938983 23.524682,29.162764 23.215312,27.731034 25.178629,26.04226 c 2.443255,-2.101599 4.670178,-1.796504 6.362271,0.87165 0.639176,1.007875 2.666245,5.291978 4.504599,9.520229 1.838354,4.228251 3.773553,8.092718 4.300442,8.587705 l 0.957981,0.899977 0.419226,-1.102646 c 0.255274,-0.671424 0.419225,-6.068014 0.419225,-13.799213 0,-13.896836 -0.0078,-13.84873 2.44517,-15.1172 1.970941,-1.019214 4.2259,-0.789449 5.584354,0.569005 l 1.176852,1.176852 0.483523,11.738402 c 0.490017,11.896027 0.826095,14.522982 1.911266,14.939402 1.906224,0.731486 2.21601,-0.184677 4.465407,-13.206045 1.239206,-7.173539 1.968244,-10.420721 2.462128,-10.966454 1.391158,-1.537215 4.742705,-1.519809 6.295208,0.03269 1.147387,1.147388 1.05469,3.124973 -0.669503,14.283063 -0.818745,5.298489 -1.36667,10.090163 -1.220432,10.67282 0.14596,0.581557 0.724796,1.358395 1.286298,1.726306 0.957759,0.627548 1.073422,0.621575 1.86971,-0.09655 0.466837,-0.421011 1.761787,-2.595985 2.877665,-4.833273 2.564176,-5.141059 3.988466,-6.711864 6.085822,-6.711864 2.769954,0 3.610947,2.927256 2.139316,7.446329 C 78.799497,44.318351 66.752066,77.28024 65.51653,80.481356 65.262041,81.140709 64.18139,81.19322 50.866695,81.19322 H 36.491617 Z"
     id="path3710"/>
</svg>
