<?xml version="1.0" encoding="UTF-8" standalone="no"?>
<!-- Created with Inkscape (http://www.inkscape.org/) -->

<svg
   xmlns:dc="http://purl.org/dc/elements/1.1/"
   xmlns:cc="http://creativecommons.org/ns#"
   xmlns:rdf="http://www.w3.org/1999/02/22-rdf-syntax-ns#"
   xmlns:svg="http://www.w3.org/2000/svg"
   xmlns="http://www.w3.org/2000/svg"
   xmlns:sodipodi="http://sodipodi.sourceforge.net/DTD/sodipodi-0.dtd"
   xmlns:inkscape="http://www.inkscape.org/namespaces/inkscape"
   version="1.1"
   id="svg2"
   xml:space="preserve"
   width="139"
   height="30"
   viewBox="0 0 799.66669 172.29333"
   sodipodi:docname="edumeet_logo.eps"
   inkscape:version="0.92.4 (5da689c313, 2019-01-14)"><metadata
     id="metadata8"><rdf:RDF><cc:Work
         rdf:about=""><dc:format>image/svg+xml</dc:format><dc:type
           rdf:resource="http://purl.org/dc/dcmitype/StillImage" /><dc:title></dc:title></cc:Work></rdf:RDF></metadata><defs
     id="defs6" /><sodipodi:namedview
     pagecolor="#ffffff"
     bordercolor="#666666"
     borderopacity="1"
     objecttolerance="10"
     gridtolerance="10"
     guidetolerance="10"
     inkscape:pageopacity="0"
     inkscape:pageshadow="2"
     inkscape:window-width="1916"
     inkscape:window-height="1014"
     id="namedview4"
     showgrid="false"
     inkscape:zoom="0.53772404"
     inkscape:cx="399.83334"
     inkscape:cy="86.146667"
     inkscape:window-x="0"
     inkscape:window-y="32"
     inkscape:window-maximized="1"
     inkscape:current-layer="g10" /><g
     id="g10"
     inkscape:groupmode="layer"
     inkscape:label="ink_ext_XXXXXX"
     transform="matrix(1.3333333,0,0,-1.3333333,0,172.29333)"><g
       id="g12"
       transform="scale(0.1)"><path
         d="m 1667.64,373.02 c 0,0 -193.65,11.343 -394.11,119.109 72.23,293.047 -69.56,605.841 -353.264,738.851 C 597.211,1382.37 212.637,1243.22 61.2031,920.25 -90.1719,597.238 48.9063,212.57 371.965,61.1602 659.195,-73.4609 995.113,21.8086 1172.46,271.719 c 248.85,5.543 495.18,101.301 495.18,101.301"
         style="fill:#3871c1;fill-opacity:1;fill-rule:nonzero;stroke:none"
         id="path14"
         inkscape:connector-curvature="0" /><path
         d="m 2241.9,497.863 c 1.02,45.887 -19.37,121.34 -102.98,121.34 -77.5,0 -110.14,-70.355 -115.23,-121.34 z m -218.21,-87.687 c 3.06,-89.742 73.42,-128.485 152.96,-128.485 58.12,0 99.91,8.161 137.64,22.434 l 18.37,-86.676 c -42.83,-17.34 -101.98,-30.59 -173.35,-30.59 -161.11,0 -255.95,98.922 -255.95,250.844 0,137.652 83.62,267.16 242.68,267.16 161.12,0 214.15,-132.562 214.15,-241.672 0,-23.453 -2.05,-41.8 -4.09,-53.015 h -332.41"
         style="fill:#004d7b;fill-opacity:1;fill-rule:nonzero;stroke:none"
         id="path16"
         inkscape:connector-curvature="0" /><path
         d="m 2793.57,486.648 c 0,10.196 -1.01,22.434 -3.06,32.629 -11.2,48.946 -50.97,88.711 -108.08,88.711 -80.55,0 -125.42,-71.375 -125.42,-164.168 0,-90.75 44.87,-157.031 124.41,-157.031 50.98,0 95.85,34.672 108.08,88.715 3.06,11.215 4.07,23.449 4.07,36.703 z m 125.42,434.379 V 336.754 c 0,-50.973 2.05,-106.043 4.09,-139.703 h -112.17 l -5.1,78.527 h -2.05 c -29.55,-55.066 -89.71,-89.738 -162.11,-89.738 -118.29,0 -212.1,100.949 -212.1,253.898 -1.01,166.211 102.98,265.125 222.29,265.125 68.32,0 117.27,-28.554 139.69,-65.261 h 2.04 v 281.425 h 125.42"
         style="fill:#004d7b;fill-opacity:1;fill-rule:nonzero;stroke:none"
         id="path18"
         inkscape:connector-curvature="0" /><path
         d="m 3498.2,345.93 c 0,-59.141 2.04,-108.078 4.09,-148.879 h -110.13 l -6.12,75.461 h -2.05 c -21.4,-35.684 -70.36,-86.672 -159.06,-86.672 -90.75,0 -173.35,54.051 -173.35,216.172 V 693.641 H 3177 V 423.422 c 0,-82.586 26.52,-135.613 92.79,-135.613 49.98,0 82.6,35.691 95.85,67.3 4.09,11.211 7.14,24.469 7.14,38.746 V 693.641 H 3498.2 V 345.93"
         style="fill:#004d7b;fill-opacity:1;fill-rule:nonzero;stroke:none"
         id="path20"
         inkscape:connector-curvature="0" /><path
         d="m 4219.13,477.465 c -4.09,88.715 -9.19,195.781 -8.15,288.57 h -3.06 c -22.44,-83.609 -51,-176.398 -81.58,-263.07 l -99.93,-297.754 h -96.87 l -91.78,293.672 c -26.5,87.687 -50.97,181.5 -69.34,267.152 h -2.02 c -3.08,-89.726 -7.14,-198.836 -12.24,-292.648 L 3738.87,197.051 H 3621.6 l 45.88,687.273 h 165.19 l 89.73,-276.336 c 24.48,-80.558 45.88,-162.129 63.23,-238.609 h 3.04 c 18.37,74.441 41.82,159.07 68.32,239.629 l 94.84,275.316 h 163.14 l 39.78,-687.273 h -122.38 l -13.24,280.414"
         style="fill:#3871c1;fill-opacity:1;fill-rule:nonzero;stroke:none"
         id="path22"
         inkscape:connector-curvature="0" /><path
         d="M 4866.67,501.941 H 4607.68 V 300.043 h 289.58 V 197.051 h -415 v 687.273 h 399.7 V 781.336 H 4607.68 V 603.91 h 258.99 V 501.941"
         style="fill:#3871c1;fill-opacity:1;fill-rule:nonzero;stroke:none"
         id="path24"
         inkscape:connector-curvature="0" /><path
         d="m 5391.83,501.941 h -259 V 300.043 h 289.59 V 197.051 h -415.01 v 687.273 h 399.71 V 781.336 H 5132.83 V 603.91 h 259 V 501.941"
         style="fill:#3871c1;fill-opacity:1;fill-rule:nonzero;stroke:none"
         id="path26"
         inkscape:connector-curvature="0" /><path
         d="m 5674.31,779.297 h -195.78 v 105.027 h 519.02 V 779.297 H 5799.73 V 197.051 h -125.42 v 582.246"
         style="fill:#3871c1;fill-opacity:1;fill-rule:nonzero;stroke:none"
         id="path28"
         inkscape:connector-curvature="0" /><path
         d="m 804.438,984.711 c -187.032,87.649 -409.68,7.086 -497.36,-179.902 -55.531,-118.496 -43.469,-251.282 20.344,-355 -108.164,-67.911 -203.207,-92.024 -203.207,-92.024 0,0 143.82,-26.316 302.43,-14.781 18.66,-13.457 38.761,-25.453 60.351,-35.578 186.984,-87.625 409.707,-7.102 497.359,179.906 87.675,187.047 7.114,409.691 -179.917,497.379"
         style="fill:#f9a72b;fill-opacity:1;fill-rule:nonzero;stroke:none"
         id="path30"
         inkscape:connector-curvature="0" /><path
         d="M 831.895,558.988 C 783.809,456.395 661.621,412.215 559.043,460.293 456.438,508.387 412.262,630.559 460.344,733.152 c 48.094,102.582 170.242,146.778 272.847,98.696 102.61,-48.106 146.797,-170.246 98.704,-272.86"
         style="fill:#ffffff;fill-opacity:1;fill-rule:nonzero;stroke:none"
         id="path32"
         inkscape:connector-curvature="0" /></g></g></svg>
