<svg xmlns="http://www.w3.org/2000/svg" width="1920" height="1080"><path d="M119,-307L413,-312L571,-322Z" fill="#99aed2" stroke="#99aed2" stroke-width="1.51"/><path d="M-124,-310L119,-307L571,-322Z" fill="#9db2d5" stroke="#9db2d5" stroke-width="1.51"/><path d="M874,1384L427,1415L1146,1428Z" fill="#4862a2" stroke="#4862a2" stroke-width="1.51"/><path d="M-124,-310L571,-322L1525,-349Z" fill="#92a7cd" stroke="#92a7cd" stroke-width="1.51"/><path d="M1525,-349L1694,-283L1918,-281Z" fill="#758bbc" stroke="#758bbc" stroke-width="1.51"/><path d="M1953,1343L1790,1403L2140,1278Z" fill="#244a92" stroke="#244a92" stroke-width="1.51"/><path d="M1525,-349L1918,-281L2212,-325Z" fill="#7187ba" stroke="#7187ba" stroke-width="1.51"/><path d="M2034,-83L2194,38L2212,-325Z" fill="#6379b1" stroke="#6379b1" stroke-width="1.51"/><path d="M2147,385L2011,570L2257,626Z" fill="#4862a2" stroke="#4862a2" stroke-width="1.51"/><path d="M2024,894L2157,954L2257,626Z" fill="#3a579b" stroke="#3a579b" stroke-width="1.51"/><path d="M2011,570L2024,894L2257,626Z" fill="#415d9f" stroke="#415d9f" stroke-width="1.51"/><path d="M2194,38L2174,147L2257,626Z" fill="#516aa7" stroke="#516aa7" stroke-width="1.51"/><path d="M2174,147L2147,385L2257,626Z" fill="#4d65a4" stroke="#4d65a4" stroke-width="1.51"/><path d="M2212,-325L2194,38L2257,626Z" fill="#576faa" stroke="#576faa" stroke-width="1.51"/><path d="M2157,954L1960,1097L2275,1068Z" fill="#2f5096" stroke="#2f5096" stroke-width="1.51"/><path d="M1960,1097L2140,1278L2275,1068Z" fill="#2a4d94" stroke="#2a4d94" stroke-width="1.51"/><path d="M2257,626L2157,954L2275,1068Z" fill="#345498" stroke="#345498" stroke-width="1.51"/><path d="M1982,203L2147,385L2174,147Z" fill="#556da9" stroke="#556da9" stroke-width="1.51"/><path d="M1918,-281L2034,-83L2212,-325Z" fill="#697fb5" stroke="#697fb5" stroke-width="1.51"/><path d="M571,-322L1238,-256L1525,-349Z" fill="#859ac6" stroke="#859ac6" stroke-width="1.51"/><path d="M1982,203L2174,147L2194,38Z" fill="#5971ac" stroke="#5971ac" stroke-width="1.51"/><path d="M2034,-83L1982,203L2194,38Z" fill="#5e75ae" stroke="#5e75ae" stroke-width="1.51"/><path d="M1952,468L2011,570L2147,385Z" fill="#4d66a4" stroke="#4d66a4" stroke-width="1.51"/><path d="M2024,894L1960,1097L2157,954Z" fill="#365498" stroke="#365498" stroke-width="1.51"/><path d="M1960,1097L1953,1343L2140,1278Z" fill="#294c93" stroke="#294c93" stroke-width="1.51"/><path d="M1982,203L1952,468L2147,385Z" fill="#536ba8" stroke="#536ba8" stroke-width="1.51"/><path d="M1727,-121L1806,263L1982,203Z" fill="#6178b0" stroke="#6178b0" stroke-width="1.51"/><path d="M1806,263L1952,468L1982,203Z" fill="#576faa" stroke="#576faa" stroke-width="1.51"/><path d="M1706,963L1960,1097L2024,894Z" fill="#3a579b" stroke="#3a579b" stroke-width="1.51"/><path d="M2011,570L1767,613L2024,894Z" fill="#4761a1" stroke="#4761a1" stroke-width="1.51"/><path d="M1767,613L1706,963L2024,894Z" fill="#445ea0" stroke="#445ea0" stroke-width="1.51"/><path d="M1727,-121L1982,203L2034,-83Z" fill="#647bb2" stroke="#647bb2" stroke-width="1.51"/><path d="M1918,-281L1727,-121L2034,-83Z" fill="#6b81b6" stroke="#6b81b6" stroke-width="1.51"/><path d="M1952,468L1767,613L2011,570Z" fill="#4d67a5" stroke="#4d67a5" stroke-width="1.51"/><path d="M1690,1095L1790,1403L1953,1343Z" fill="#2e4f95" stroke="#2e4f95" stroke-width="1.51"/><path d="M1690,1095L1953,1343L1960,1097Z" fill="#325297" stroke="#325297" stroke-width="1.51"/><path d="M1806,263L1723,476L1952,468Z" fill="#566eaa" stroke="#566eaa" stroke-width="1.51"/><path d="M1723,476L1767,613L1952,468Z" fill="#526aa7" stroke="#526aa7" stroke-width="1.51"/><path d="M1706,963L1690,1095L1960,1097Z" fill="#3b589b" stroke="#3b589b" stroke-width="1.51"/><path d="M1694,-283L1727,-121L1918,-281Z" fill="#7086b9" stroke="#7086b9" stroke-width="1.51"/><path d="M-24,1309L-327,1292L427,1415Z" fill="#6177b0" stroke="#6177b0" stroke-width="1.51"/><path d="M1458,-61L1504,231L1727,-121Z" fill="#6d83b7" stroke="#6d83b7" stroke-width="1.51"/><path d="M1578,901L1706,963L1767,613Z" fill="#4862a2" stroke="#4862a2" stroke-width="1.51"/><path d="M1508,1271L1146,1428L1790,1403Z" fill="#355498" stroke="#355498" stroke-width="1.51"/><path d="M1690,1095L1508,1271L1790,1403Z" fill="#345398" stroke="#345398" stroke-width="1.51"/><path d="M1591,412L1723,476L1806,263Z" fill="#5a71ac" stroke="#5a71ac" stroke-width="1.51"/><path d="M1504,231L1591,412L1806,263Z" fill="#6076af" stroke="#6076af" stroke-width="1.51"/><path d="M1727,-121L1504,231L1806,263Z" fill="#657bb3" stroke="#657bb3" stroke-width="1.51"/><path d="M1444,597L1578,901L1767,613Z" fill="#5068a6" stroke="#5068a6" stroke-width="1.51"/><path d="M1723,476L1444,597L1767,613Z" fill="#546ca9" stroke="#546ca9" stroke-width="1.51"/><path d="M1591,412L1444,597L1723,476Z" fill="#5970ab" stroke="#5970ab" stroke-width="1.51"/><path d="M1694,-283L1458,-61L1727,-121Z" fill="#7287ba" stroke="#7287ba" stroke-width="1.51"/><path d="M1525,-349L1458,-61L1694,-283Z" fill="#778cbd" stroke="#778cbd" stroke-width="1.51"/><path d="M1502,1068L1508,1271L1690,1095Z" fill="#3d5a9c" stroke="#3d5a9c" stroke-width="1.51"/><path d="M1502,1068L1690,1095L1706,963Z" fill="#405c9e" stroke="#405c9e" stroke-width="1.51"/><path d="M1578,901L1502,1068L1706,963Z" fill="#445ea0" stroke="#445ea0" stroke-width="1.51"/><path d="M571,-322L858,-210L1238,-256Z" fill="#899ec8" stroke="#899ec8" stroke-width="1.51"/><path d="M1375,629L1320,819L1444,597Z" fill="#576eaa" stroke="#576eaa" stroke-width="1.51"/><path d="M1243,1280L1146,1428L1508,1271Z" fill="#3d5a9c" stroke="#3d5a9c" stroke-width="1.51"/><path d="M1444,597L1320,819L1578,901Z" fill="#5169a7" stroke="#5169a7" stroke-width="1.51"/><path d="M1395,490L1444,597L1591,412Z" fill="#5b73ad" stroke="#5b73ad" stroke-width="1.51"/><path d="M1504,231L1395,251L1591,412Z" fill="#637ab1" stroke="#637ab1" stroke-width="1.51"/><path d="M1395,251L1395,490L1591,412Z" fill="#6077b0" stroke="#6077b0" stroke-width="1.51"/><path d="M586,1377L427,1415L874,1384Z" fill="#4e67a5" stroke="#4e67a5" stroke-width="1.51"/><path d="M1458,-61L1395,251L1504,231Z" fill="#6b80b6" stroke="#6b80b6" stroke-width="1.51"/><path d="M1238,-256L1458,-61L1525,-349Z" fill="#7a8fbf" stroke="#7a8fbf" stroke-width="1.51"/><path d="M1320,819L1502,1068L1578,901Z" fill="#4a63a3" stroke="#4a63a3" stroke-width="1.51"/><path d="M1247,8L1395,251L1458,-61Z" fill="#7085b9" stroke="#7085b9" stroke-width="1.51"/><path d="M1320,819L1387,1103L1502,1068Z" fill="#4962a2" stroke="#4962a2" stroke-width="1.51"/><path d="M1502,1068L1387,1103L1508,1271Z" fill="#405c9e" stroke="#405c9e" stroke-width="1.51"/><path d="M1387,1103L1243,1280L1508,1271Z" fill="#3f5c9d" stroke="#3f5c9d" stroke-width="1.51"/><path d="M1238,-256L1247,8L1458,-61Z" fill="#788dbe" stroke="#788dbe" stroke-width="1.51"/><path d="M1320,819L1160,874L1387,1103Z" fill="#4f68a6" stroke="#4f68a6" stroke-width="1.51"/><path d="M1395,490L1375,629L1444,597Z" fill="#5b71ac" stroke="#5b71ac" stroke-width="1.51"/><path d="M1097,335L1076,726L1375,629Z" fill="#6177b0" stroke="#6177b0" stroke-width="1.51"/><path d="M1097,335L1375,629L1395,490Z" fill="#6178b0" stroke="#6178b0" stroke-width="1.51"/><path d="M1097,335L1395,490L1395,251Z" fill="#667cb3" stroke="#667cb3" stroke-width="1.51"/><path d="M1134,236L1097,335L1395,251Z" fill="#6c82b6" stroke="#6c82b6" stroke-width="1.51"/><path d="M1247,8L1134,236L1395,251Z" fill="#6f84b8" stroke="#6f84b8" stroke-width="1.51"/><path d="M1076,726L1320,819L1375,629Z" fill="#596fab" stroke="#596fab" stroke-width="1.51"/><path d="M1034,1122L1243,1280L1387,1103Z" fill="#4761a1" stroke="#4761a1" stroke-width="1.51"/><path d="M1160,874L1034,1122L1387,1103Z" fill="#4d66a5" stroke="#4d66a5" stroke-width="1.51"/><path d="M858,-210L1127,-192L1238,-256Z" fill="#8397c4" stroke="#8397c4" stroke-width="1.51"/><path d="M1238,-256L1127,-192L1247,8Z" fill="#7c91c0" stroke="#7c91c0" stroke-width="1.51"/><path d="M1076,726L1160,874L1320,819Z" fill="#576eab" stroke="#576eab" stroke-width="1.51"/><path d="M898,429L1076,726L1097,335Z" fill="#687eb4" stroke="#687eb4" stroke-width="1.51"/><path d="M1001,22L1134,236L1247,8Z" fill="#758bbc" stroke="#758bbc" stroke-width="1.51"/><path d="M1127,-192L1001,22L1247,8Z" fill="#7b90bf" stroke="#7b90bf" stroke-width="1.51"/><path d="M1034,1122L1146,1428L1243,1280Z" fill="#445fa0" stroke="#445fa0" stroke-width="1.51"/><path d="M898,429L858,615L1076,726Z" fill="#677cb3" stroke="#677cb3" stroke-width="1.51"/><path d="M910,-96L1001,22L1127,-192Z" fill="#7f94c2" stroke="#7f94c2" stroke-width="1.51"/><path d="M1001,22L918,139L1134,236Z" fill="#778cbd" stroke="#778cbd" stroke-width="1.51"/><path d="M1034,1122L874,1384L1146,1428Z" fill="#4661a1" stroke="#4661a1" stroke-width="1.51"/><path d="M902,1069L1034,1122L1160,874Z" fill="#526aa7" stroke="#526aa7" stroke-width="1.51"/><path d="M852,903L902,1069L1160,874Z" fill="#576eaa" stroke="#576eaa" stroke-width="1.51"/><path d="M1076,726L852,903L1160,874Z" fill="#5a71ac" stroke="#5a71ac" stroke-width="1.51"/><path d="M918,139L1097,335L1134,236Z" fill="#7287ba" stroke="#7287ba" stroke-width="1.51"/><path d="M858,-210L910,-96L1127,-192Z" fill="#8499c5" stroke="#8499c5" stroke-width="1.51"/><path d="M918,139L898,429L1097,335Z" fill="#7186b9" stroke="#7186b9" stroke-width="1.51"/><path d="M858,615L852,903L1076,726Z" fill="#6177af" stroke="#6177af" stroke-width="1.51"/><path d="M902,1069L874,1384L1034,1122Z" fill="#4e67a5" stroke="#4e67a5" stroke-width="1.51"/><path d="M910,-96L918,139L1001,22Z" fill="#7d92c1" stroke="#7d92c1" stroke-width="1.51"/><path d="M673,885L852,903L858,615Z" fill="#6278b0" stroke="#6278b0" stroke-width="1.51"/><path d="M681,616L673,885L858,615Z" fill="#687db3" stroke="#687db3" stroke-width="1.51"/><path d="M655,1032L586,1377L874,1384Z" fill="#516aa7" stroke="#516aa7" stroke-width="1.51"/><path d="M655,1032L874,1384L902,1069Z" fill="#536ba8" stroke="#536ba8" stroke-width="1.51"/><path d="M688,-62L575,157L918,139Z" fill="#8095c3" stroke="#8095c3" stroke-width="1.51"/><path d="M575,157L685,348L918,139Z" fill="#7b8fc0" stroke="#7b8fc0" stroke-width="1.51"/><path d="M685,348L898,429L918,139Z" fill="#7589bb" stroke="#7589bb" stroke-width="1.51"/><path d="M910,-96L688,-62L918,139Z" fill="#8095c3" stroke="#8095c3" stroke-width="1.51"/><path d="M681,616L858,615L898,429Z" fill="#6c81b6" stroke="#6c81b6" stroke-width="1.51"/><path d="M852,903L655,1032L902,1069Z" fill="#5971ab" stroke="#5971ab" stroke-width="1.51"/><path d="M858,-210L688,-62L910,-96Z" fill="#859ac6" stroke="#859ac6" stroke-width="1.51"/><path d="M685,348L681,616L898,429Z" fill="#7185b9" stroke="#7185b9" stroke-width="1.51"/><path d="M673,885L655,1032L852,903Z" fill="#5e75ae" stroke="#5e75ae" stroke-width="1.51"/><path d="M571,-322L688,-62L858,-210Z" fill="#8ba0c9" stroke="#8ba0c9" stroke-width="1.51"/><path d="M394,1159L586,1377L655,1032Z" fill="#5971ab" stroke="#5971ab" stroke-width="1.51"/><path d="M419,564L346,938L673,885Z" fill="#6a80b5" stroke="#6a80b5" stroke-width="1.51"/><path d="M419,564L673,885L681,616Z" fill="#6c81b6" stroke="#6c81b6" stroke-width="1.51"/><path d="M575,157L354,349L685,348Z" fill="#7d92c1" stroke="#7d92c1" stroke-width="1.51"/><path d="M354,349L419,564L685,348Z" fill="#798ebe" stroke="#798ebe" stroke-width="1.51"/><path d="M419,564L681,616L685,348Z" fill="#7388bb" stroke="#7388bb" stroke-width="1.51"/><path d="M427,-4L575,157L688,-62Z" fill="#879bc6" stroke="#879bc6" stroke-width="1.51"/><path d="M571,-322L427,-4L688,-62Z" fill="#8da1ca" stroke="#8da1ca" stroke-width="1.51"/><path d="M346,938L655,1032L673,885Z" fill="#6278b1" stroke="#6278b1" stroke-width="1.51"/><path d="M413,-312L427,-4L571,-322Z" fill="#92a7ce" stroke="#92a7ce" stroke-width="1.51"/><path d="M346,938L394,1159L655,1032Z" fill="#6178b0" stroke="#6178b0" stroke-width="1.51"/><path d="M231,832L346,938L419,564Z" fill="#6f84b8" stroke="#6f84b8" stroke-width="1.51"/><path d="M166,1302L-24,1309L427,1415Z" fill="#5c74ad" stroke="#5c74ad" stroke-width="1.51"/><path d="M334,278L354,349L575,157Z" fill="#8196c3" stroke="#8196c3" stroke-width="1.51"/><path d="M394,1159L427,1415L586,1377Z" fill="#566daa" stroke="#566daa" stroke-width="1.51"/><path d="M427,-4L334,278L575,157Z" fill="#859ac5" stroke="#859ac5" stroke-width="1.51"/><path d="M346,938L181,1098L394,1159Z" fill="#647ab2" stroke="#647ab2" stroke-width="1.51"/><path d="M119,-307L152,-96L413,-312Z" fill="#99aed2" stroke="#99aed2" stroke-width="1.51"/><path d="M354,349L72,568L419,564Z" fill="#7c90c0" stroke="#7c90c0" stroke-width="1.51"/><path d="M72,568L231,832L419,564Z" fill="#768bbd" stroke="#768bbd" stroke-width="1.51"/><path d="M394,1159L166,1302L427,1415Z" fill="#5b72ac" stroke="#5b72ac" stroke-width="1.51"/><path d="M224,141L334,278L427,-4Z" fill="#889dc8" stroke="#889dc8" stroke-width="1.51"/><path d="M413,-312L152,-96L427,-4Z" fill="#93a8ce" stroke="#93a8ce" stroke-width="1.51"/><path d="M152,-96L224,141L427,-4Z" fill="#8fa3cb" stroke="#8fa3cb" stroke-width="1.51"/><path d="M65,369L72,568L354,349Z" fill="#8196c3" stroke="#8196c3" stroke-width="1.51"/><path d="M181,1098L166,1302L394,1159Z" fill="#6178b0" stroke="#6178b0" stroke-width="1.51"/><path d="M334,278L65,369L354,349Z" fill="#8397c4" stroke="#8397c4" stroke-width="1.51"/><path d="M231,832L181,1098L346,938Z" fill="#6a80b6" stroke="#6a80b6" stroke-width="1.51"/><path d="M224,141L65,369L334,278Z" fill="#879bc6" stroke="#879bc6" stroke-width="1.51"/><path d="M-121,-61L-48,249L152,-96Z" fill="#95a9cf" stroke="#95a9cf" stroke-width="1.51"/><path d="M152,-96L-48,249L224,141Z" fill="#8fa4cc" stroke="#8fa4cc" stroke-width="1.51"/><path d="M-48,249L65,369L224,141Z" fill="#8a9ec9" stroke="#8a9ec9" stroke-width="1.51"/><path d="M-78,975L-2,1034L231,832Z" fill="#7085b9" stroke="#7085b9" stroke-width="1.51"/><path d="M-110,738L-78,975L231,832Z" fill="#758abc" stroke="#758abc" stroke-width="1.51"/><path d="M72,568L-110,738L231,832Z" fill="#788dbe" stroke="#788dbe" stroke-width="1.51"/><path d="M-2,1034L181,1098L231,832Z" fill="#6c82b6" stroke="#6c82b6" stroke-width="1.51"/><path d="M-24,1309L166,1302L181,1098Z" fill="#6379b1" stroke="#6379b1" stroke-width="1.51"/><path d="M-2,1034L-24,1309L181,1098Z" fill="#687eb4" stroke="#687eb4" stroke-width="1.51"/><path d="M-124,-310L-121,-61L119,-307Z" fill="#9fb5d6" stroke="#9fb5d6" stroke-width="1.51"/><path d="M119,-307L-121,-61L152,-96Z" fill="#9bafd3" stroke="#9bafd3" stroke-width="1.51"/><path d="M65,369L-33,415L72,568Z" fill="#8498c4" stroke="#8498c4" stroke-width="1.51"/><path d="M-48,249L-33,415L65,369Z" fill="#899dc8" stroke="#899dc8" stroke-width="1.51"/><path d="M-33,415L-252,618L72,568Z" fill="#8398c4" stroke="#8398c4" stroke-width="1.51"/><path d="M-252,618L-110,738L72,568Z" fill="#8094c2" stroke="#8094c2" stroke-width="1.51"/><path d="M-110,738L-227,854L-78,975Z" fill="#788dbe" stroke="#788dbe" stroke-width="1.51"/><path d="M-121,-61L-303,237L-48,249Z" fill="#95a9cf" stroke="#95a9cf" stroke-width="1.51"/><path d="M-78,975L-357,1090L-24,1309Z" fill="#6e84b8" stroke="#6e84b8" stroke-width="1.51"/><path d="M-357,1090L-327,1292L-24,1309Z" fill="#6c82b7" stroke="#6c82b7" stroke-width="1.51"/><path d="M-78,975L-24,1309L-2,1034Z" fill="#6c81b7" stroke="#6c81b7" stroke-width="1.51"/><path d="M-48,249L-320,377L-33,415Z" fill="#8ca1ca" stroke="#8ca1ca" stroke-width="1.51"/><path d="M-320,377L-252,618L-33,415Z" fill="#899ec8" stroke="#899ec8" stroke-width="1.51"/><path d="M-124,-310L-240,-84L-121,-61Z" fill="#a0b5d6" stroke="#a0b5d6" stroke-width="1.51"/><path d="M-303,237L-320,377L-48,249Z" fill="#91a6cd" stroke="#91a6cd" stroke-width="1.51"/><path d="M-240,-84L-303,237L-121,-61Z" fill="#9bafd3" stroke="#9bafd3" stroke-width="1.51"/><path d="M-227,854L-357,1090L-78,975Z" fill="#768bbd" stroke="#768bbd" stroke-width="1.51"/><path d="M-338,-174L-240,-84L-124,-310Z" fill="#a3b8d8" stroke="#a3b8d8" stroke-width="1.51"/><path d="M-252,618L-227,854L-110,738Z" fill="#7f93c2" stroke="#7f93c2" stroke-width="1.51"/><path d="M-338,-174L-303,237L-240,-84Z" fill="#9eb2d5" stroke="#9eb2d5" stroke-width="1.51"/><path d="M-252,618L-357,1090L-227,854Z" fill="#7c91c0" stroke="#7c91c0" stroke-width="1.51"/><path d="M-320,377L-357,1090L-252,618Z" fill="#8398c4" stroke="#8398c4" stroke-width="1.51"/><path d="M-338,-174L-320,377L-303,237Z" fill="#99aed2" stroke="#99aed2" stroke-width="1.51"/><path d="M-338,-174L-357,1090L-320,377Z" fill="#8ea3cb" stroke="#8ea3cb" stroke-width="1.51"/></svg>