<svg xmlns="http://www.w3.org/2000/svg" width="1920" height="1080"><path d="M-170,-177L-25,-197L229,-239Z" fill="#e8f1fa" stroke="#e8f1fa" stroke-width="1.51"/><path d="M607,1329L-62,1342L765,1337Z" fill="#6b80ad" stroke="#6b80ad" stroke-width="1.51"/><path d="M765,1337L-62,1342L907,1344Z" fill="#647eab" stroke="#647eab" stroke-width="1.51"/><path d="M928,-220L1034,-231L1206,-263Z" fill="#accde7" stroke="#accde7" stroke-width="1.51"/><path d="M553,-228L928,-220L1206,-263Z" fill="#b6d5eb" stroke="#b6d5eb" stroke-width="1.51"/><path d="M229,-239L553,-228L1206,-263Z" fill="#c9e1ef" stroke="#c9e1ef" stroke-width="1.51"/><path d="M1174,1311L907,1344L1376,1317Z" fill="#32679f" stroke="#32679f" stroke-width="1.51"/><path d="M1611,-215L1820,-207L1952,-241Z" fill="#8fa3cf" stroke="#8fa3cf" stroke-width="1.51"/><path d="M1469,-257L1611,-215L1952,-241Z" fill="#93aad4" stroke="#93aad4" stroke-width="1.51"/><path d="M1840,1283L1687,1286L1976,1315Z" fill="#0a478c" stroke="#0a478c" stroke-width="1.51"/><path d="M1687,1286L1376,1317L1976,1315Z" fill="#124e92" stroke="#124e92" stroke-width="1.51"/><path d="M1976,1315L1376,1317L2044,1329Z" fill="#0c478b" stroke="#0c478b" stroke-width="1.51"/><path d="M1376,1317L907,1344L2044,1329Z" fill="#1f5897" stroke="#1f5897" stroke-width="1.51"/><path d="M1984,1140L2064,1168L2066,935Z" fill="#0f4d92" stroke="#0f4d92" stroke-width="1.51"/><path d="M1967,978L1984,1140L2066,935Z" fill="#135498" stroke="#135498" stroke-width="1.51"/><path d="M1206,-263L1469,-257L2095,-260Z" fill="#97b1d8" stroke="#97b1d8" stroke-width="1.51"/><path d="M1469,-257L1952,-241L2095,-260Z" fill="#90a1ce" stroke="#90a1ce" stroke-width="1.51"/><path d="M1952,-241L1913,-76L2095,-260Z" fill="#8896c0" stroke="#8896c0" stroke-width="1.51"/><path d="M2095,-260L1913,-76L2125,-18Z" fill="#818fba" stroke="#818fba" stroke-width="1.51"/><path d="M2032,121L2079,211L2125,-18Z" fill="#7386b3" stroke="#7386b3" stroke-width="1.51"/><path d="M2079,211L1893,245L2134,383Z" fill="#6382b1" stroke="#6382b1" stroke-width="1.51"/><path d="M1893,245L1882,406L2134,383Z" fill="#5e83b5" stroke="#5e83b5" stroke-width="1.51"/><path d="M1882,406L2089,522L2134,383Z" fill="#5179ad" stroke="#5179ad" stroke-width="1.51"/><path d="M2125,-18L2079,211L2134,383Z" fill="#6a81ae" stroke="#6a81ae" stroke-width="1.51"/><path d="M1921,702L2049,839L2137,716Z" fill="#2a66a1" stroke="#2a66a1" stroke-width="1.51"/><path d="M1988,590L1921,702L2137,716Z" fill="#346ca6" stroke="#346ca6" stroke-width="1.51"/><path d="M2064,1168L2044,1329L2137,716Z" fill="#0f4b8f" stroke="#0f4b8f" stroke-width="1.51"/><path d="M2089,522L1988,590L2137,716Z" fill="#3a6ca4" stroke="#3a6ca4" stroke-width="1.51"/><path d="M2049,839L2066,935L2137,716Z" fill="#235d9a" stroke="#235d9a" stroke-width="1.51"/><path d="M2134,383L2089,522L2137,716Z" fill="#406ea2" stroke="#406ea2" stroke-width="1.51"/><path d="M2066,935L2064,1168L2137,716Z" fill="#185595" stroke="#185595" stroke-width="1.51"/><path d="M1936,96L2032,121L2125,-18Z" fill="#768ab8" stroke="#768ab8" stroke-width="1.51"/><path d="M1913,-76L1936,96L2125,-18Z" fill="#7c8fbc" stroke="#7c8fbc" stroke-width="1.51"/><path d="M1976,1315L2044,1329L2064,1168Z" fill="#093e80" stroke="#093e80" stroke-width="1.51"/><path d="M1882,406L1988,590L2089,522Z" fill="#4879af" stroke="#4879af" stroke-width="1.51"/><path d="M1984,1140L1976,1315L2064,1168Z" fill="#094489" stroke="#094489" stroke-width="1.51"/><path d="M2032,121L1893,245L2079,211Z" fill="#6d87b7" stroke="#6d87b7" stroke-width="1.51"/><path d="M1921,702L1886,786L2049,839Z" fill="#2969a8" stroke="#2969a8" stroke-width="1.51"/><path d="M2049,839L1967,978L2066,935Z" fill="#1b5a9c" stroke="#1b5a9c" stroke-width="1.51"/><path d="M1936,96L1893,245L2032,121Z" fill="#728cbc" stroke="#728cbc" stroke-width="1.51"/><path d="M1886,786L1967,978L2049,839Z" fill="#2061a3" stroke="#2061a3" stroke-width="1.51"/><path d="M1820,-207L1913,-76L1952,-241Z" fill="#8a9bc8" stroke="#8a9bc8" stroke-width="1.51"/><path d="M1886,786L1839,1024L1967,978Z" fill="#1a61a6" stroke="#1a61a6" stroke-width="1.51"/><path d="M1967,978L1839,1024L1984,1140Z" fill="#11559c" stroke="#11559c" stroke-width="1.51"/><path d="M1839,1024L1799,1140L1984,1140Z" fill="#0d549e" stroke="#0d549e" stroke-width="1.51"/><path d="M1840,1283L1976,1315L1984,1140Z" fill="#09468b" stroke="#09468b" stroke-width="1.51"/><path d="M1799,1140L1840,1283L1984,1140Z" fill="#084d97" stroke="#084d97" stroke-width="1.51"/><path d="M1822,590L1921,702L1988,590Z" fill="#3b75b1" stroke="#3b75b1" stroke-width="1.51"/><path d="M1882,406L1822,590L1988,590Z" fill="#467db6" stroke="#467db6" stroke-width="1.51"/><path d="M1759,835L1839,1024L1886,786Z" fill="#2068ad" stroke="#2068ad" stroke-width="1.51"/><path d="M1429,1293L1376,1317L1687,1286Z" fill="#1b5899" stroke="#1b5899" stroke-width="1.51"/><path d="M1813,145L1893,245L1936,96Z" fill="#7390c3" stroke="#7390c3" stroke-width="1.51"/><path d="M1833,410L1822,590L1882,406Z" fill="#5083bb" stroke="#5083bb" stroke-width="1.51"/><path d="M1913,-76L1798,-78L1936,96Z" fill="#8096c6" stroke="#8096c6" stroke-width="1.51"/><path d="M1798,-78L1813,145L1936,96Z" fill="#7d96c7" stroke="#7d96c7" stroke-width="1.51"/><path d="M1833,410L1882,406L1893,245Z" fill="#5f89bd" stroke="#5f89bd" stroke-width="1.51"/><path d="M1820,-207L1798,-78L1913,-76Z" fill="#879ccb" stroke="#879ccb" stroke-width="1.51"/><path d="M1739,288L1833,410L1893,245Z" fill="#658ec0" stroke="#658ec0" stroke-width="1.51"/><path d="M1765,662L1886,786L1921,702Z" fill="#3073b2" stroke="#3073b2" stroke-width="1.51"/><path d="M1822,590L1765,662L1921,702Z" fill="#3978b5" stroke="#3978b5" stroke-width="1.51"/><path d="M1765,662L1759,835L1886,786Z" fill="#2c73b3" stroke="#2c73b3" stroke-width="1.51"/><path d="M1813,145L1739,288L1893,245Z" fill="#6f92c4" stroke="#6f92c4" stroke-width="1.51"/><path d="M1652,-64L1685,143L1798,-78Z" fill="#84a0ce" stroke="#84a0ce" stroke-width="1.51"/><path d="M1798,-78L1685,143L1813,145Z" fill="#7e9aca" stroke="#7e9aca" stroke-width="1.51"/><path d="M1669,432L1639,499L1822,590Z" fill="#4d88c0" stroke="#4d88c0" stroke-width="1.51"/><path d="M1669,432L1822,590L1833,410Z" fill="#5186be" stroke="#5186be" stroke-width="1.51"/><path d="M1759,835L1637,995L1839,1024Z" fill="#1b67ad" stroke="#1b67ad" stroke-width="1.51"/><path d="M1645,1113L1799,1140L1839,1024Z" fill="#135ba4" stroke="#135ba4" stroke-width="1.51"/><path d="M1637,995L1645,1113L1839,1024Z" fill="#1862aa" stroke="#1862aa" stroke-width="1.51"/><path d="M1799,1140L1687,1286L1840,1283Z" fill="#0d4f96" stroke="#0d4f96" stroke-width="1.51"/><path d="M1669,229L1739,288L1813,145Z" fill="#7196c7" stroke="#7196c7" stroke-width="1.51"/><path d="M1739,288L1669,432L1833,410Z" fill="#5f8fc2" stroke="#5f8fc2" stroke-width="1.51"/><path d="M1685,143L1669,229L1813,145Z" fill="#7698c9" stroke="#7698c9" stroke-width="1.51"/><path d="M1652,-64L1798,-78L1820,-207Z" fill="#8aa1ce" stroke="#8aa1ce" stroke-width="1.51"/><path d="M1611,-215L1652,-64L1820,-207Z" fill="#8ea6d2" stroke="#8ea6d2" stroke-width="1.51"/><path d="M1639,499L1765,662L1822,590Z" fill="#4381bc" stroke="#4381bc" stroke-width="1.51"/><path d="M1629,703L1759,835L1765,662Z" fill="#317ab7" stroke="#317ab7" stroke-width="1.51"/><path d="M401,1301L-62,1342L607,1329Z" fill="#7284b1" stroke="#7284b1" stroke-width="1.51"/><path d="M1629,703L1621,786L1759,835Z" fill="#2e79b8" stroke="#2e79b8" stroke-width="1.51"/><path d="M1645,1113L1687,1286L1799,1140Z" fill="#10579f" stroke="#10579f" stroke-width="1.51"/><path d="M1621,786L1637,995L1759,835Z" fill="#2671b4" stroke="#2671b4" stroke-width="1.51"/><path d="M1639,499L1629,703L1765,662Z" fill="#4083bd" stroke="#4083bd" stroke-width="1.51"/><path d="M1669,229L1669,432L1739,288Z" fill="#6895c6" stroke="#6895c6" stroke-width="1.51"/><path d="M1621,786L1521,937L1637,995Z" fill="#2572b5" stroke="#2572b5" stroke-width="1.51"/><path d="M1531,506L1629,703L1639,499Z" fill="#488bc3" stroke="#488bc3" stroke-width="1.51"/><path d="M1477,-78L1446,118L1652,-64Z" fill="#89abd6" stroke="#89abd6" stroke-width="1.51"/><path d="M1524,385L1669,432L1669,229Z" fill="#6697c8" stroke="#6697c8" stroke-width="1.51"/><path d="M1652,-64L1446,118L1685,143Z" fill="#82a4d2" stroke="#82a4d2" stroke-width="1.51"/><path d="M1645,1113L1464,1124L1687,1286Z" fill="#165da5" stroke="#165da5" stroke-width="1.51"/><path d="M1464,1124L1429,1293L1687,1286Z" fill="#1a5da0" stroke="#1a5da0" stroke-width="1.51"/><path d="M1446,118L1669,229L1685,143Z" fill="#7ba1d0" stroke="#7ba1d0" stroke-width="1.51"/><path d="M1611,-215L1477,-78L1652,-64Z" fill="#8eacd6" stroke="#8eacd6" stroke-width="1.51"/><path d="M1524,385L1639,499L1669,432Z" fill="#5a92c6" stroke="#5a92c6" stroke-width="1.51"/><path d="M1437,279L1524,385L1669,229Z" fill="#6e9fcd" stroke="#6e9fcd" stroke-width="1.51"/><path d="M1446,118L1437,279L1669,229Z" fill="#79a4d0" stroke="#79a4d0" stroke-width="1.51"/><path d="M1513,802L1521,937L1621,786Z" fill="#2c7aba" stroke="#2c7aba" stroke-width="1.51"/><path d="M1531,506L1439,685L1629,703Z" fill="#438ac3" stroke="#438ac3" stroke-width="1.51"/><path d="M1524,385L1531,506L1639,499Z" fill="#5793c8" stroke="#5793c8" stroke-width="1.51"/><path d="M1637,995L1464,1124L1645,1113Z" fill="#1b66ac" stroke="#1b66ac" stroke-width="1.51"/><path d="M1521,937L1464,1124L1637,995Z" fill="#206db1" stroke="#206db1" stroke-width="1.51"/><path d="M1513,802L1621,786L1629,703Z" fill="#317ebc" stroke="#317ebc" stroke-width="1.51"/><path d="M1439,685L1513,802L1629,703Z" fill="#3884bf" stroke="#3884bf" stroke-width="1.51"/><path d="M1469,-257L1477,-78L1611,-215Z" fill="#95b2d9" stroke="#95b2d9" stroke-width="1.51"/><path d="M1206,-263L1316,-214L1469,-257Z" fill="#9fbfe0" stroke="#9fbfe0" stroke-width="1.51"/><path d="M1373,44L1446,118L1477,-78Z" fill="#8bafd8" stroke="#8bafd8" stroke-width="1.51"/><path d="M1513,802L1290,861L1521,937Z" fill="#317ebc" stroke="#317ebc" stroke-width="1.51"/><path d="M1299,949L1464,1124L1521,937Z" fill="#2874b5" stroke="#2874b5" stroke-width="1.51"/><path d="M1313,550L1439,685L1531,506Z" fill="#4d93c8" stroke="#4d93c8" stroke-width="1.51"/><path d="M1374,425L1313,550L1531,506Z" fill="#599bcb" stroke="#599bcb" stroke-width="1.51"/><path d="M1524,385L1374,425L1531,506Z" fill="#5e9acb" stroke="#5e9acb" stroke-width="1.51"/><path d="M1290,861L1299,949L1521,937Z" fill="#307ebc" stroke="#307ebc" stroke-width="1.51"/><path d="M1437,279L1374,425L1524,385Z" fill="#6aa1ce" stroke="#6aa1ce" stroke-width="1.51"/><path d="M1469,-257L1316,-214L1477,-78Z" fill="#98b8dc" stroke="#98b8dc" stroke-width="1.51"/><path d="M1360,729L1290,861L1513,802Z" fill="#3987c1" stroke="#3987c1" stroke-width="1.51"/><path d="M1439,685L1360,729L1513,802Z" fill="#3b88c2" stroke="#3b88c2" stroke-width="1.51"/><path d="M1354,284L1374,425L1437,279Z" fill="#70a6d0" stroke="#70a6d0" stroke-width="1.51"/><path d="M1354,284L1437,279L1446,118Z" fill="#7aa9d3" stroke="#7aa9d3" stroke-width="1.51"/><path d="M1306,1115L1429,1293L1464,1124Z" fill="#2367aa" stroke="#2367aa" stroke-width="1.51"/><path d="M1299,949L1306,1115L1464,1124Z" fill="#2a73b4" stroke="#2a73b4" stroke-width="1.51"/><path d="M1294,-38L1373,44L1477,-78Z" fill="#90b4da" stroke="#90b4da" stroke-width="1.51"/><path d="M1316,-214L1294,-38L1477,-78Z" fill="#96b9dc" stroke="#96b9dc" stroke-width="1.51"/><path d="M1306,1115L1376,1317L1429,1293Z" fill="#2564a4" stroke="#2564a4" stroke-width="1.51"/><path d="M1313,550L1360,729L1439,685Z" fill="#4792c7" stroke="#4792c7" stroke-width="1.51"/><path d="M1373,44L1354,284L1446,118Z" fill="#83add7" stroke="#83add7" stroke-width="1.51"/><path d="M1180,247L1354,284L1373,44Z" fill="#82b1d8" stroke="#82b1d8" stroke-width="1.51"/><path d="M1313,550L1236,633L1360,729Z" fill="#4c97c9" stroke="#4c97c9" stroke-width="1.51"/><path d="M1161,46L1180,247L1373,44Z" fill="#8cb7dc" stroke="#8cb7dc" stroke-width="1.51"/><path d="M1354,284L1180,415L1374,425Z" fill="#6ea8d2" stroke="#6ea8d2" stroke-width="1.51"/><path d="M1180,415L1313,550L1374,425Z" fill="#62a3cf" stroke="#62a3cf" stroke-width="1.51"/><path d="M1306,1115L1174,1311L1376,1317Z" fill="#2967a5" stroke="#2967a5" stroke-width="1.51"/><path d="M1294,-38L1161,46L1373,44Z" fill="#91b9dc" stroke="#91b9dc" stroke-width="1.51"/><path d="M1299,949L1234,954L1306,1115Z" fill="#307cb9" stroke="#307cb9" stroke-width="1.51"/><path d="M1180,247L1180,415L1354,284Z" fill="#78b0d5" stroke="#78b0d5" stroke-width="1.51"/><path d="M1169,810L1290,861L1360,729Z" fill="#3e8dc4" stroke="#3e8dc4" stroke-width="1.51"/><path d="M1236,633L1169,810L1360,729Z" fill="#4593c7" stroke="#4593c7" stroke-width="1.51"/><path d="M1071,1288L907,1344L1174,1311Z" fill="#3a6ca3" stroke="#3a6ca3" stroke-width="1.51"/><path d="M1290,861L1234,954L1299,949Z" fill="#3583bf" stroke="#3583bf" stroke-width="1.51"/><path d="M1234,954L1188,1085L1306,1115Z" fill="#327ab8" stroke="#327ab8" stroke-width="1.51"/><path d="M1188,1085L1174,1311L1306,1115Z" fill="#3071b0" stroke="#3071b0" stroke-width="1.51"/><path d="M1180,415L1133,520L1313,550Z" fill="#62a5d1" stroke="#62a5d1" stroke-width="1.51"/><path d="M1153,-86L1294,-38L1316,-214Z" fill="#9abfdf" stroke="#9abfdf" stroke-width="1.51"/><path d="M1206,-263L1153,-86L1316,-214Z" fill="#a0c3e2" stroke="#a0c3e2" stroke-width="1.51"/><path d="M1133,520L1236,633L1313,550Z" fill="#579fce" stroke="#579fce" stroke-width="1.51"/><path d="M1153,-86L1161,46L1294,-38Z" fill="#97bedf" stroke="#97bedf" stroke-width="1.51"/><path d="M1169,810L1234,954L1290,861Z" fill="#3c89c2" stroke="#3c89c2" stroke-width="1.51"/><path d="M1061,1142L1071,1288L1174,1311Z" fill="#3870aa" stroke="#3870aa" stroke-width="1.51"/><path d="M1161,46L1067,206L1180,247Z" fill="#8dbadd" stroke="#8dbadd" stroke-width="1.51"/><path d="M1061,1142L1174,1311L1188,1085Z" fill="#3774b1" stroke="#3774b1" stroke-width="1.51"/><path d="M1034,-231L1153,-86L1206,-263Z" fill="#a6c8e4" stroke="#a6c8e4" stroke-width="1.51"/><path d="M1169,810L1017,813L1234,954Z" fill="#448ec5" stroke="#448ec5" stroke-width="1.51"/><path d="M985,1037L1188,1085L1234,954Z" fill="#3c81bc" stroke="#3c81bc" stroke-width="1.51"/><path d="M1003,656L1169,810L1236,633Z" fill="#509acb" stroke="#509acb" stroke-width="1.51"/><path d="M1133,520L1003,656L1236,633Z" fill="#5ba2cf" stroke="#5ba2cf" stroke-width="1.51"/><path d="M1017,813L985,1037L1234,954Z" fill="#448bc3" stroke="#448bc3" stroke-width="1.51"/><path d="M1022,358L1180,415L1180,247Z" fill="#7bb3d7" stroke="#7bb3d7" stroke-width="1.51"/><path d="M1003,656L1017,813L1169,810Z" fill="#509acb" stroke="#509acb" stroke-width="1.51"/><path d="M1067,206L1022,358L1180,247Z" fill="#85b8da" stroke="#85b8da" stroke-width="1.51"/><path d="M985,1037L1061,1142L1188,1085Z" fill="#3e7fba" stroke="#3e7fba" stroke-width="1.51"/><path d="M1153,-86L1010,-8L1161,46Z" fill="#9cc2e2" stroke="#9cc2e2" stroke-width="1.51"/><path d="M1025,508L1133,520L1180,415Z" fill="#6aabd4" stroke="#6aabd4" stroke-width="1.51"/><path d="M1022,358L1025,508L1180,415Z" fill="#73b0d6" stroke="#73b0d6" stroke-width="1.51"/><path d="M979,78L1067,206L1161,46Z" fill="#96c0e0" stroke="#96c0e0" stroke-width="1.51"/><path d="M1025,508L1003,656L1133,520Z" fill="#63a8d3" stroke="#63a8d3" stroke-width="1.51"/><path d="M1010,-8L979,78L1161,46Z" fill="#9bc3e2" stroke="#9bc3e2" stroke-width="1.51"/><path d="M1034,-231L1010,-8L1153,-86Z" fill="#a4c8e4" stroke="#a4c8e4" stroke-width="1.51"/><path d="M553,-228L778,-178L928,-220Z" fill="#c0dbed" stroke="#c0dbed" stroke-width="1.51"/><path d="M928,-220L919,-30L1010,-8Z" fill="#a8cde7" stroke="#a8cde7" stroke-width="1.51"/><path d="M875,818L985,1037L1017,813Z" fill="#4f94c8" stroke="#4f94c8" stroke-width="1.51"/><path d="M928,-220L1010,-8L1034,-231Z" fill="#aacde7" stroke="#aacde7" stroke-width="1.51"/><path d="M853,1112L907,1344L1061,1142Z" fill="#467bb4" stroke="#467bb4" stroke-width="1.51"/><path d="M869,200L1022,358L1067,206Z" fill="#8dbede" stroke="#8dbede" stroke-width="1.51"/><path d="M1061,1142L907,1344L1071,1288Z" fill="#3e73ab" stroke="#3e73ab" stroke-width="1.51"/><path d="M1003,656L907,711L1017,813Z" fill="#58a1cf" stroke="#58a1cf" stroke-width="1.51"/><path d="M979,78L869,200L1067,206Z" fill="#97c2e1" stroke="#97c2e1" stroke-width="1.51"/><path d="M875,818L937,1044L985,1037Z" fill="#4e8fc5" stroke="#4e8fc5" stroke-width="1.51"/><path d="M896,592L1003,656L1025,508Z" fill="#66aad3" stroke="#66aad3" stroke-width="1.51"/><path d="M985,1037L937,1044L1061,1142Z" fill="#4583bd" stroke="#4583bd" stroke-width="1.51"/><path d="M937,1044L853,1112L1061,1142Z" fill="#4883bc" stroke="#4883bc" stroke-width="1.51"/><path d="M869,200L853,345L1022,358Z" fill="#8dbfde" stroke="#8dbfde" stroke-width="1.51"/><path d="M1022,358L853,345L1025,508Z" fill="#7db6da" stroke="#7db6da" stroke-width="1.51"/><path d="M891,91L869,200L979,78Z" fill="#9fc6e4" stroke="#9fc6e4" stroke-width="1.51"/><path d="M853,345L896,592L1025,508Z" fill="#76b3d8" stroke="#76b3d8" stroke-width="1.51"/><path d="M907,711L875,818L1017,813Z" fill="#589ecd" stroke="#589ecd" stroke-width="1.51"/><path d="M919,-30L979,78L1010,-8Z" fill="#a1c8e5" stroke="#a1c8e5" stroke-width="1.51"/><path d="M896,592L907,711L1003,656Z" fill="#63a7d2" stroke="#63a7d2" stroke-width="1.51"/><path d="M875,818L751,973L937,1044Z" fill="#5794c8" stroke="#5794c8" stroke-width="1.51"/><path d="M919,-30L891,91L979,78Z" fill="#a2c9e5" stroke="#a2c9e5" stroke-width="1.51"/><path d="M778,-178L919,-30L928,-220Z" fill="#b2d3e9" stroke="#b2d3e9" stroke-width="1.51"/><path d="M749,879L751,973L875,818Z" fill="#619ccb" stroke="#619ccb" stroke-width="1.51"/><path d="M853,345L724,416L896,592Z" fill="#83badb" stroke="#83badb" stroke-width="1.51"/><path d="M724,416L784,595L896,592Z" fill="#7ab6d9" stroke="#7ab6d9" stroke-width="1.51"/><path d="M853,1112L765,1337L907,1344Z" fill="#4e7aae" stroke="#4e7aae" stroke-width="1.51"/><path d="M751,973L853,1112L937,1044Z" fill="#548cc2" stroke="#548cc2" stroke-width="1.51"/><path d="M778,-178L718,-65L919,-30Z" fill="#b4d4ea" stroke="#b4d4ea" stroke-width="1.51"/><path d="M896,592L769,633L907,711Z" fill="#6babd4" stroke="#6babd4" stroke-width="1.51"/><path d="M753,93L891,91L919,-30Z" fill="#a8cce6" stroke="#a8cce6" stroke-width="1.51"/><path d="M718,-65L753,93L919,-30Z" fill="#b0d1e8" stroke="#b0d1e8" stroke-width="1.51"/><path d="M751,973L758,1093L853,1112Z" fill="#5a8dc2" stroke="#5a8dc2" stroke-width="1.51"/><path d="M758,1093L765,1337L853,1112Z" fill="#5683b9" stroke="#5683b9" stroke-width="1.51"/><path d="M784,595L769,633L896,592Z" fill="#73b0d6" stroke="#73b0d6" stroke-width="1.51"/><path d="M769,633L875,818L907,711Z" fill="#65a6d1" stroke="#65a6d1" stroke-width="1.51"/><path d="M753,93L869,200L891,91Z" fill="#a5cae5" stroke="#a5cae5" stroke-width="1.51"/><path d="M693,259L853,345L869,200Z" fill="#99c5e1" stroke="#99c5e1" stroke-width="1.51"/><path d="M769,633L749,879L875,818Z" fill="#66a5d0" stroke="#66a5d0" stroke-width="1.51"/><path d="M753,93L693,259L869,200Z" fill="#a4cae4" stroke="#a4cae4" stroke-width="1.51"/><path d="M229,-239L465,-207L553,-228Z" fill="#d8e7f4" stroke="#d8e7f4" stroke-width="1.51"/><path d="M693,259L724,416L853,345Z" fill="#96c5df" stroke="#96c5df" stroke-width="1.51"/><path d="M571,658L568,893L749,879Z" fill="#73a9d2" stroke="#73a9d2" stroke-width="1.51"/><path d="M758,1093L603,1139L765,1337Z" fill="#5c86b9" stroke="#5c86b9" stroke-width="1.51"/><path d="M603,1139L607,1329L765,1337Z" fill="#5e81b1" stroke="#5e81b1" stroke-width="1.51"/><path d="M571,658L749,879L769,633Z" fill="#73aed4" stroke="#73aed4" stroke-width="1.51"/><path d="M724,416L555,488L784,595Z" fill="#89bddc" stroke="#89bddc" stroke-width="1.51"/><path d="M571,658L769,633L784,595Z" fill="#7ab3d7" stroke="#7ab3d7" stroke-width="1.51"/><path d="M555,488L571,658L784,595Z" fill="#84b9db" stroke="#84b9db" stroke-width="1.51"/><path d="M718,-65L596,49L753,93Z" fill="#b6d5e9" stroke="#b6d5e9" stroke-width="1.51"/><path d="M621,-72L718,-65L778,-178Z" fill="#bdd9eb" stroke="#bdd9eb" stroke-width="1.51"/><path d="M553,-228L621,-72L778,-178Z" fill="#c4deed" stroke="#c4deed" stroke-width="1.51"/><path d="M751,973L592,1013L758,1093Z" fill="#6394c6" stroke="#6394c6" stroke-width="1.51"/><path d="M554,206L693,259L753,93Z" fill="#accfe6" stroke="#accfe6" stroke-width="1.51"/><path d="M596,49L554,206L753,93Z" fill="#b5d3e8" stroke="#b5d3e8" stroke-width="1.51"/><path d="M693,259L593,373L724,416Z" fill="#9bc8e0" stroke="#9bc8e0" stroke-width="1.51"/><path d="M749,879L568,893L751,973Z" fill="#689ecc" stroke="#689ecc" stroke-width="1.51"/><path d="M592,1013L603,1139L758,1093Z" fill="#6592c3" stroke="#6592c3" stroke-width="1.51"/><path d="M568,893L592,1013L751,973Z" fill="#6b9ccb" stroke="#6b9ccb" stroke-width="1.51"/><path d="M248,1268L-62,1342L401,1301Z" fill="#788ab5" stroke="#788ab5" stroke-width="1.51"/><path d="M621,-72L596,49L718,-65Z" fill="#bcd9eb" stroke="#bcd9eb" stroke-width="1.51"/><path d="M593,373L555,488L724,416Z" fill="#96c4e0" stroke="#96c4e0" stroke-width="1.51"/><path d="M554,206L593,373L693,259Z" fill="#a7cee4" stroke="#a7cee4" stroke-width="1.51"/><path d="M120,1271L-62,1342L248,1268Z" fill="#7d8cb8" stroke="#7d8cb8" stroke-width="1.51"/><path d="M439,857L568,893L571,658Z" fill="#7badd4" stroke="#7badd4" stroke-width="1.51"/><path d="M396,725L439,857L571,658Z" fill="#83b3d8" stroke="#83b3d8" stroke-width="1.51"/><path d="M554,206L468,226L593,373Z" fill="#add0e6" stroke="#add0e6" stroke-width="1.51"/><path d="M433,121L554,206L596,49Z" fill="#bbd6eb" stroke="#bbd6eb" stroke-width="1.51"/><path d="M592,1013L447,1098L603,1139Z" fill="#6d94c5" stroke="#6d94c5" stroke-width="1.51"/><path d="M447,1098L401,1301L603,1139Z" fill="#6e8ec0" stroke="#6e8ec0" stroke-width="1.51"/><path d="M603,1139L401,1301L607,1329Z" fill="#6785b5" stroke="#6785b5" stroke-width="1.51"/><path d="M553,-228L465,-207L621,-72Z" fill="#cbe1f0" stroke="#cbe1f0" stroke-width="1.51"/><path d="M465,-207L446,-50L621,-72Z" fill="#cadff0" stroke="#cadff0" stroke-width="1.51"/><path d="M446,-50L596,49L621,-72Z" fill="#c2dbed" stroke="#c2dbed" stroke-width="1.51"/><path d="M555,488L410,558L571,658Z" fill="#8ebede" stroke="#8ebede" stroke-width="1.51"/><path d="M568,893L427,938L592,1013Z" fill="#74a0ce" stroke="#74a0ce" stroke-width="1.51"/><path d="M382,393L555,488L593,373Z" fill="#9ec8e3" stroke="#9ec8e3" stroke-width="1.51"/><path d="M468,226L382,393L593,373Z" fill="#abcfe5" stroke="#abcfe5" stroke-width="1.51"/><path d="M446,-50L433,121L596,49Z" fill="#c3dbed" stroke="#c3dbed" stroke-width="1.51"/><path d="M427,938L447,1098L592,1013Z" fill="#749bcb" stroke="#749bcb" stroke-width="1.51"/><path d="M433,121L468,226L554,206Z" fill="#b9d5ea" stroke="#b9d5ea" stroke-width="1.51"/><path d="M410,558L396,725L571,658Z" fill="#8bbadc" stroke="#8bbadc" stroke-width="1.51"/><path d="M439,857L427,938L568,893Z" fill="#7aa6d2" stroke="#7aa6d2" stroke-width="1.51"/><path d="M382,393L410,558L555,488Z" fill="#9cc6e2" stroke="#9cc6e2" stroke-width="1.51"/><path d="M-25,-197L84,-197L229,-239Z" fill="#e5eff9" stroke="#e5eff9" stroke-width="1.51"/><path d="M382,393L320,440L410,558Z" fill="#a3c9e4" stroke="#a3c9e4" stroke-width="1.51"/><path d="M336,648L396,725L410,558Z" fill="#91bdde" stroke="#91bdde" stroke-width="1.51"/><path d="M316,-40L433,121L446,-50Z" fill="#cbdef0" stroke="#cbdef0" stroke-width="1.51"/><path d="M233,1193L401,1301L447,1098Z" fill="#768fc1" stroke="#768fc1" stroke-width="1.51"/><path d="M427,938L307,1006L447,1098Z" fill="#7b9ecd" stroke="#7b9ecd" stroke-width="1.51"/><path d="M316,-40L446,-50L465,-207Z" fill="#d0e2f3" stroke="#d0e2f3" stroke-width="1.51"/><path d="M229,-239L316,-40L465,-207Z" fill="#d8e6f5" stroke="#d8e6f5" stroke-width="1.51"/><path d="M433,121L312,293L468,226Z" fill="#bbd6eb" stroke="#bbd6eb" stroke-width="1.51"/><path d="M312,293L382,393L468,226Z" fill="#b3d2e8" stroke="#b3d2e8" stroke-width="1.51"/><path d="M396,725L324,823L439,857Z" fill="#86b1d8" stroke="#86b1d8" stroke-width="1.51"/><path d="M233,1193L248,1268L401,1301Z" fill="#768bba" stroke="#768bba" stroke-width="1.51"/><path d="M316,-40L264,47L433,121Z" fill="#ccdff1" stroke="#ccdff1" stroke-width="1.51"/><path d="M307,1006L233,1193L447,1098Z" fill="#7b98c9" stroke="#7b98c9" stroke-width="1.51"/><path d="M264,47L312,293L433,121Z" fill="#c5dbee" stroke="#c5dbee" stroke-width="1.51"/><path d="M324,823L427,938L439,857Z" fill="#81aad5" stroke="#81aad5" stroke-width="1.51"/><path d="M324,823L307,1006L427,938Z" fill="#82a7d3" stroke="#82a7d3" stroke-width="1.51"/><path d="M274,506L336,648L410,558Z" fill="#99c3e2" stroke="#99c3e2" stroke-width="1.51"/><path d="M320,440L274,506L410,558Z" fill="#a0c7e4" stroke="#a0c7e4" stroke-width="1.51"/><path d="M336,648L324,823L396,725Z" fill="#8cb7db" stroke="#8cb7db" stroke-width="1.51"/><path d="M264,47L141,239L312,293Z" fill="#c5dbee" stroke="#c5dbee" stroke-width="1.51"/><path d="M312,293L320,440L382,393Z" fill="#aed0e7" stroke="#aed0e7" stroke-width="1.51"/><path d="M153,1020L233,1193L307,1006Z" fill="#809dcc" stroke="#809dcc" stroke-width="1.51"/><path d="M229,-239L170,-59L316,-40Z" fill="#d9e7f5" stroke="#d9e7f5" stroke-width="1.51"/><path d="M312,293L101,355L320,440Z" fill="#b3d3e8" stroke="#b3d3e8" stroke-width="1.51"/><path d="M180,650L109,789L324,823Z" fill="#90b9dc" stroke="#90b9dc" stroke-width="1.51"/><path d="M153,1020L307,1006L324,823Z" fill="#84a6d4" stroke="#84a6d4" stroke-width="1.51"/><path d="M109,789L153,1020L324,823Z" fill="#8aafd7" stroke="#8aafd7" stroke-width="1.51"/><path d="M180,650L324,823L336,648Z" fill="#91badd" stroke="#91badd" stroke-width="1.51"/><path d="M274,506L180,650L336,648Z" fill="#9ac3e2" stroke="#9ac3e2" stroke-width="1.51"/><path d="M101,355L274,506L320,440Z" fill="#accfe7" stroke="#accfe7" stroke-width="1.51"/><path d="M159,40L141,239L264,47Z" fill="#cee0f2" stroke="#cee0f2" stroke-width="1.51"/><path d="M141,239L101,355L312,293Z" fill="#bdd8ec" stroke="#bdd8ec" stroke-width="1.51"/><path d="M170,-59L264,47L316,-40Z" fill="#d3e3f3" stroke="#d3e3f3" stroke-width="1.51"/><path d="M153,1020L103,1137L233,1193Z" fill="#829aca" stroke="#829aca" stroke-width="1.51"/><path d="M170,-59L159,40L264,47Z" fill="#d4e4f3" stroke="#d4e4f3" stroke-width="1.51"/><path d="M87,487L180,650L274,506Z" fill="#a2c9e5" stroke="#a2c9e5" stroke-width="1.51"/><path d="M101,355L87,487L274,506Z" fill="#aed0e8" stroke="#aed0e8" stroke-width="1.51"/><path d="M84,-197L170,-59L229,-239Z" fill="#dfecf7" stroke="#dfecf7" stroke-width="1.51"/><path d="M233,1193L120,1271L248,1268Z" fill="#7b8ebc" stroke="#7b8ebc" stroke-width="1.51"/><path d="M30,139L141,239L159,40Z" fill="#cfe1f2" stroke="#cfe1f2" stroke-width="1.51"/><path d="M103,1137L120,1271L233,1193Z" fill="#7f94c3" stroke="#7f94c3" stroke-width="1.51"/><path d="M-55,835L-6,1029L109,789Z" fill="#92b3da" stroke="#92b3da" stroke-width="1.51"/><path d="M109,789L-6,1029L153,1020Z" fill="#8cacd6" stroke="#8cacd6" stroke-width="1.51"/><path d="M25,-16L159,40L170,-59Z" fill="#d8e7f5" stroke="#d8e7f5" stroke-width="1.51"/><path d="M-35,643L109,789L180,650Z" fill="#9ac1e0" stroke="#9ac1e0" stroke-width="1.51"/><path d="M87,487L-35,643L180,650Z" fill="#a3c8e5" stroke="#a3c8e5" stroke-width="1.51"/><path d="M84,-197L25,-16L170,-59Z" fill="#ddeaf7" stroke="#ddeaf7" stroke-width="1.51"/><path d="M-6,1029L103,1137L153,1020Z" fill="#87a2cf" stroke="#87a2cf" stroke-width="1.51"/><path d="M25,-16L30,139L159,40Z" fill="#d6e5f4" stroke="#d6e5f4" stroke-width="1.51"/><path d="M34,342L101,355L141,239Z" fill="#bfdaec" stroke="#bfdaec" stroke-width="1.51"/><path d="M-53,553L-35,643L87,487Z" fill="#a8cce7" stroke="#a8cce7" stroke-width="1.51"/><path d="M-6,1029L1,1113L103,1137Z" fill="#88a0ce" stroke="#88a0ce" stroke-width="1.51"/><path d="M-15,227L34,342L141,239Z" fill="#c5ddee" stroke="#c5ddee" stroke-width="1.51"/><path d="M30,139L-15,227L141,239Z" fill="#cce0f0" stroke="#cce0f0" stroke-width="1.51"/><path d="M-25,-197L25,-16L84,-197Z" fill="#e3eef9" stroke="#e3eef9" stroke-width="1.51"/><path d="M34,342L87,487L101,355Z" fill="#b7d6ea" stroke="#b7d6ea" stroke-width="1.51"/><path d="M103,1137L1,1113L120,1271Z" fill="#8398c7" stroke="#8398c7" stroke-width="1.51"/><path d="M1,1113L-62,1342L120,1271Z" fill="#8293bf" stroke="#8293bf" stroke-width="1.51"/><path d="M-35,643L-55,835L109,789Z" fill="#99bedf" stroke="#99bedf" stroke-width="1.51"/><path d="M34,342L-53,553L87,487Z" fill="#b2d3e9" stroke="#b2d3e9" stroke-width="1.51"/><path d="M-55,835L-122,996L-6,1029Z" fill="#92aed8" stroke="#92aed8" stroke-width="1.51"/><path d="M-212,1233L-62,1342L1,1113Z" fill="#8897c2" stroke="#8897c2" stroke-width="1.51"/><path d="M-25,-197L-184,-87L25,-16Z" fill="#e5eff9" stroke="#e5eff9" stroke-width="1.51"/><path d="M25,-16L-178,91L30,139Z" fill="#dae7f6" stroke="#dae7f6" stroke-width="1.51"/><path d="M-179,393L-53,553L34,342Z" fill="#b9d7eb" stroke="#b9d7eb" stroke-width="1.51"/><path d="M-15,227L-121,256L34,342Z" fill="#c8dfef" stroke="#c8dfef" stroke-width="1.51"/><path d="M-121,256L-179,393L34,342Z" fill="#c5deee" stroke="#c5deee" stroke-width="1.51"/><path d="M-178,91L-15,227L30,139Z" fill="#d5e5f4" stroke="#d5e5f4" stroke-width="1.51"/><path d="M-169,1086L-212,1233L1,1113Z" fill="#8ea0cd" stroke="#8ea0cd" stroke-width="1.51"/><path d="M-184,-87L-178,91L25,-16Z" fill="#e1ecf8" stroke="#e1ecf8" stroke-width="1.51"/><path d="M-204,733L-55,835L-35,643Z" fill="#9fc2e1" stroke="#9fc2e1" stroke-width="1.51"/><path d="M-170,-177L-184,-87L-25,-197Z" fill="#ebf3fb" stroke="#ebf3fb" stroke-width="1.51"/><path d="M-178,91L-121,256L-15,227Z" fill="#d3e5f3" stroke="#d3e5f3" stroke-width="1.51"/><path d="M-122,996L-169,1086L-6,1029Z" fill="#90a8d3" stroke="#90a8d3" stroke-width="1.51"/><path d="M-6,1029L-169,1086L1,1113Z" fill="#8da4d0" stroke="#8da4d0" stroke-width="1.51"/><path d="M-179,393L-220,495L-53,553Z" fill="#b8d6eb" stroke="#b8d6eb" stroke-width="1.51"/><path d="M-204,733L-209,786L-55,835Z" fill="#9fbfe0" stroke="#9fbfe0" stroke-width="1.51"/><path d="M-53,553L-204,733L-35,643Z" fill="#a6c9e5" stroke="#a6c9e5" stroke-width="1.51"/><path d="M-209,786L-122,996L-55,835Z" fill="#99b7dc" stroke="#99b7dc" stroke-width="1.51"/><path d="M-220,495L-204,733L-53,553Z" fill="#adcee8" stroke="#adcee8" stroke-width="1.51"/><path d="M-209,786L-169,1086L-122,996Z" fill="#96b1d9" stroke="#96b1d9" stroke-width="1.51"/><path d="M-178,91L-179,393L-121,256Z" fill="#d0e4f2" stroke="#d0e4f2" stroke-width="1.51"/><path d="M-220,495L-179,393L-178,91Z" fill="#cae1f0" stroke="#cae1f0" stroke-width="1.51"/><path d="M-209,786L-212,1233L-169,1086Z" fill="#94abd5" stroke="#94abd5" stroke-width="1.51"/><path d="M-184,-87L-220,495L-178,91Z" fill="#d9e8f5" stroke="#d9e8f5" stroke-width="1.51"/><path d="M-220,495L-209,786L-204,733Z" fill="#a9c9e5" stroke="#a9c9e5" stroke-width="1.51"/><path d="M-220,495L-212,1233L-209,786Z" fill="#9fbdde" stroke="#9fbdde" stroke-width="1.51"/></svg>