<svg xmlns="http://www.w3.org/2000/svg" width="24" height="24" viewBox="0 0 24 24">
	<g>
		<path
         d="M23.78700473 7.7610694C23.78700473 7.7610694 19.32738673 2.3867608 19.32738673 2.3867608C19.13984773 2.1607585 18.91713373 2.0882379 18.63693973 2.2176245C18.36703673 2.3422016 18.22715573 2.5841415 18.22715573 2.9368427C18.22715573 2.9368427 18.22715573 5.6735307 18.22715573 5.6735307C16.60026573 6.0262319 15.09099273 6.6909889 13.72054573 7.6906705C12.03598073 8.9196554 10.69300173 10.4408914 9.74082913 12.3174694C9.56878473 12.6565904 9.61472063 13.0060384 9.85793833 13.2765524C10.07145773 13.5142954 10.41981173 13.5447094 10.65379573 13.3611024C10.66553573 13.3469524 10.66553573 13.3469524 10.67727573 13.3469524C10.84110373 13.2202534 11.00363973 13.1043994 11.15725573 13.0083964C11.31983073 12.9069714 11.66067273 12.7122784 12.18733073 12.4444524C12.71395073 12.1762954 13.21736773 11.9365244 13.72058873 11.7532424C14.22400573 11.5696774 14.85607473 11.3852164 15.59343573 11.2311224C16.34257473 11.0749524 17.07997473 10.9913044 17.79417273 10.9913044C17.79417273 10.9913044 18.22715973 10.9913044 18.22715973 10.9913044C18.22715973 10.9913044 18.22715973 13.6574994 18.22715973 13.6574994C18.22715973 14.0102004 18.36723673 14.2509614 18.63694373 14.3767174C18.73010373 14.4203774 18.81250973 14.4332974 18.87092773 14.4332974C19.04645473 14.4332974 19.19826973 14.3622874 19.32739073 14.2076254C19.32739073 14.2076254 23.78708673 8.8613254 23.78708673 8.8613254C24.03351273 8.5660564 24.03300473 8.0574684 23.78700873 7.7610674C23.78700873 7.7610674 23.78700873 7.7610674 23.78700873 7.7610674M19.51465573 11.7673384C19.51465573 11.7673384 19.51465573 10.2720364 19.51465573 10.2720364C19.51465573 9.8630814 19.26897373 9.5103804 18.94108373 9.4962344C18.68362273 9.4537944 18.29731573 9.4396544 17.79417273 9.4396544C16.12032873 9.4396544 14.43478673 9.7782104 12.76090373 10.4694194C14.54011773 8.6497074 16.61200773 7.5365769 18.96455973 7.1263967C19.28071173 7.0713227 19.51473473 6.7454039 19.51473473 6.3364497C19.51473473 6.3364497 19.51473473 4.8128558 19.51473473 4.8128558C19.51473473 4.8128558 22.41761773 8.3111524 22.41761773 8.3111524C22.41761773 8.3111524 19.51465573 11.7673414 19.51465573 11.7673414" />
		<path
			d="M17.17360373 20.0049884C17.17360373 20.0615284 17.10341373 20.1461164 17.04499073 20.1461164C17.04499073 20.1461164 1.44180703 20.1461164 1.44180703 20.1461164C1.35991303 20.1461164 1.32469783 20.1036764 1.32469783 20.0049884C1.32469783 20.0049884 1.32469783 6.3082043 1.32469783 6.3082043C1.32469783 6.2095143 1.35991283 6.1670295 1.44180703 6.1670295C1.44180703 6.1670295 14.34107173 6.1670295 14.34107173 6.1670295C14.34107173 6.1670295 14.34107173 4.5871826 14.34107173 4.5871826C14.34107173 4.5871826 1.44180703 4.5871826 1.44180703 4.5871826C0.70440653 4.5871826 0.10735711 5.2784393 0.02542373 6.139068C0.02542373 6.139068 0.02542373 6.3082043 0.02542373 6.3082043C0.02542373 6.3082043 0.02542373 20.0050354 0.02542373 20.0050354C0.02542373 20.0050354 0.02542373 20.1744544 0.02542373 20.1744544C0.10731799 21.0348004 0.70440653 21.7118644 1.44180703 21.7118644C1.44180703 21.7118644 17.04499073 21.7118644 17.04499073 21.7118644C17.44280173 21.7118644 17.78516873 21.5460284 18.05162873 21.2180354C18.32380073 20.8830634 18.46141273 20.4705254 18.46141273 20.0049884C18.46141273 20.0049884 18.46141273 15.3501814 18.46141273 15.3501814C18.46141273 15.3501814 17.17364273 15.3501814 17.17364273 15.3501814C17.17364273 15.3501814 17.17364273 20.0049884 17.17364273 20.0049884C17.17364273 20.0049884 17.17360373 20.0049884 17.17360373 20.0049884" />
	</g>
</svg>
