<?xml version="1.0" encoding="utf-8"?>
<svg version="1.1" id="Layer_1" xmlns="http://www.w3.org/2000/svg" xmlns:xlink="http://www.w3.org/1999/xlink" x="0px" y="0px" viewBox="0 0 96 96" style="enable-background:new 0 0 96 96;" xml:space="preserve">
<style type="text/css">
	.st0{fill:#000000;}
</style>
<g id="XMLID_2_">
	<path id="XMLID_8_" class="st0" d="M69.1,61.3l4.6,4.6h1.8v-4.6H69.1z M70.9,56.7l0-22.9c0-2.5-2.1-4.6-4.6-4.6H37l12,12
		c0.4-0.1,0.8-0.2,1.3-0.2v-4.9l9.2,8.5L55.8,48l12.7,12.7C69.9,59.9,70.9,58.4,70.9,56.7z M26,23.9L23,26.8l3.5,3.5
		c-0.9,0.8-1.5,2-1.5,3.4v22.9c0,2.5,2,4.6,4.6,4.6h-9.2v4.6H62l6.2,6.2l2.9-2.9L26,23.9z M36.5,54.4c0.7-3.4,2.1-6.8,4.7-9.3
		l3.6,3.6C41.4,49.6,38.7,51.4,36.5,54.4z"/>
</g>
</svg>
