<?xml version="1.0" encoding="utf-8"?>
<!DOCTYPE svg PUBLIC "-//W3C//DTD SVG 1.1 Tiny//EN" "http://www.w3.org/Graphics/SVG/1.1/DTD/svg11-tiny.dtd">
<svg xmlns="http://www.w3.org/2000/svg" xmlns:xlink="http://www.w3.org/1999/xlink" version="1.1" baseProfile="tiny" x="0px" y="0px" width="480px" height="480px" viewBox="0 0 480 480" xml:space="preserve">
  <g id="all_friends">
  	<path d="M185.161,285.818c-9.453-7.317-17-18.963-20.438-28.691c-0.406-0.371-0.949-0.846-1.373-1.23   c-5.297-4.638-15.156-13.284-15.156-32.656c0-9.143,1.748-15.652,5.514-20.48c0.518-0.651,1.174-1.407,1.984-2.188v-19.394   c0-23.428,16.861-54.488,53.471-65.856c-6.391-14.644-22.232-30.543-53.656-30.543c-43.455,0-57.205,30.422-57.205,45.851   c0,8.313,0,22.479,0,23.514c0,1.049-6.188-2.826-6.188,11.153c0,15.946,10.752,17.047,12.658,23.061   c3.375,10.691,13.877,22.314,20.826,22.314c0,0,0.531,2.209,0.531,6.278c0,3.296-0.078,3.24-2.402,3.24   c-37.77,0-63.721,39.909-63.721,52.653c0,16.292,0,34.201,0,34.201h80.076C153.303,297.144,168.805,289.123,185.161,285.818z"/>
  	<path d="M356.256,220.19c-2.312,0-2.408,0.056-2.408-3.24c0-4.069,0.531-6.278,0.531-6.278c6.955,0,17.469-11.623,20.844-22.314   c1.906-6.014,12.658-7.114,12.658-23.061c0-13.979-6.174-10.104-6.174-11.153c0-1.035,0-15.2,0-23.514   c0-15.429-13.781-45.851-57.232-45.851c-31.486,0-47.342,15.985-53.701,30.659c36.389,11.459,53.154,42.386,53.154,65.74v19.397   c4.125,3.957,7.486,10.812,7.486,22.664c0,19.377-9.859,28.022-15.158,32.661c-0.439,0.384-0.971,0.854-1.375,1.229   c-3.422,9.733-10.986,21.37-20.439,28.688c16.379,3.313,31.877,11.334,45.078,21.227h80.488c0,0,0-17.909,0-34.201   C420.008,260.1,394.04,220.19,356.256,220.19z"/>
  	<path d="M278.368,298.86c-2.814,0-2.926-8.948-2.926-12.952c0-4.927,0.643-7.619,0.643-7.619c8.439,0,21.189-14.091,25.283-27.064   c2.312-7.296,15.355-8.634,15.355-27.984c0-16.956-7.498-12.257-7.498-13.525c0-1.26,0-18.445,0-28.536   c0-18.712-16.703-55.618-69.422-55.618c-52.705,0-69.406,36.906-69.406,55.618c0,10.091,0,27.276,0,28.536   c0,1.269-7.516-3.431-7.516,13.525c0,19.351,13.047,20.688,15.359,27.984c4.107,12.974,16.844,27.064,25.283,27.064   c0,0,0.639,2.692,0.639,7.619c0,4.004-0.096,12.952-2.922,12.952c-45.811,0-86.328,48.422-86.328,63.89c0,19.765,0,32.467,0,32.467   h124.891h124.893c0,0,0-12.702,0-32.467C364.696,347.282,324.178,298.86,278.368,298.86z"/>
  </g>
</svg>
