<?xml version="1.0" encoding="iso-8859-1"?>
<svg version="1.1" id="Capa_1" xmlns="http://www.w3.org/2000/svg" xmlns:xlink="http://www.w3.org/1999/xlink" x="0px" y="0px"
	 viewBox="0 0 83.208 83.208" style="enable-background:new 0 0 83.208 83.208;" xml:space="preserve">
<g>
	<g>
		<g>
			<polygon style="fill:#D80027;" points="25.052,69.154 17.894,76.312 53.683,76.312 46.525,69.154 			"/>
		</g>
		<g>
			<path style="fill:#D80027;" d="M64.419,6.896c-7.831,0-14.537,4.814-17.357,11.631H0v46.525h71.577v-22.01
				c6.814-2.82,11.631-9.53,11.631-17.357C83.208,15.325,74.78,6.896,64.419,6.896z M64.419,42.685c-9.373,0-17-7.627-17-17
				s7.627-17,17-17s17,7.627,17,17S73.792,42.685,64.419,42.685z"/>
		</g>
		<g>
			<polygon style="fill:#D80027;" points="66.338,29.372 67.068,14.258 61.764,14.258 62.533,29.372 			"/>
		</g>
		<g>
			<path style="fill:#D80027;" d="M64.434,31.039c-1.764,0-3.003,1.267-3.003,3.035c0,1.732,1.199,3.035,3.003,3.035
				c1.804,0,2.97-1.303,2.97-3.035C67.368,32.306,66.202,31.039,64.434,31.039z"/>
		</g>
	</g>
</g>
<g>
</g>
<g>
</g>
<g>
</g>
<g>
</g>
<g>
</g>
<g>
</g>
<g>
</g>
<g>
</g>
<g>
</g>
<g>
</g>
<g>
</g>
<g>
</g>
<g>
</g>
<g>
</g>
<g>
</g>
</svg>
